<?xml version="1.0" encoding="UTF-8"?> <svg xmlns="http://www.w3.org/2000/svg" viewBox="0 0 720.5 179.7"><style>.st1{display:inline;fill:#6d6e71}.st2{fill:#fff}</style><g id="Star_Mark"><path class="st2" d="M91.2 124.4c3.6 1.8 7.2 4.1 7.2 8.7 0 6-5.2 8.4-10.3 8.4-4 .1-8.7-1.6-12.3-3.1l-1 9.1c4.3 1.4 8.3 2.4 12.3 2.6 11.4.4 21.3-4.9 21.3-17.5 0-11.6-8.6-15-16.9-19.2-3.1-1.5-7.2-3.6-7.2-7.7 0-5.2 4.6-6.8 9.1-6.8 4.1 0 6.2.7 11.2 2.6l1.4-8.9c-4.5-1.6-9.1-2.3-12.8-2.3-10.4 0-18.8 5.5-18.8 16.1-.1 11.2 8.9 14 16.8 18zM140.8 109.7l4.2 10.2h9.7l-13.9-30.8-13.8 30.8h9.6zM147.8 137.3l-7-5.4-12.2 6.4 5.1-11.6-6.9-6.4L114 149h9.8zM43.4 150c8.9 0 14.4-1.5 18.1-2.7v-30H40.9v8.4h10.8v14.9c-2.1.5-4.9.8-8.3.8-11.3 0-20.4-8.2-20.5-21.3.1-12.1 8.5-21.2 21-21.2 7.1 0 11.3 1.3 16.1 4.4l.8-10c-5.3-1.8-9-3.1-17.3-3.1C26 90.4 13 102.2 13 120c0 18.3 12.2 30 30.4 30zM157.6 149h10.1l-12.9-28.7-6.8 6.4z"></path><path d="M0 0v179.7h179.4V0H0zm43.5 141.5c3.4 0 6.2-.2 8.3-.8v-14.9H40.9v-8.4h20.6v30c-3.6 1.2-9.2 2.7-18.1 2.7C25.2 150 13 138.3 13 120c0-17.8 12.9-29.6 30.5-29.6 8.3 0 12 1.2 17.3 3.1l-.8 10c-4.8-3.2-9-4.4-16.1-4.4-12.5 0-20.9 9.1-20.9 21.3.1 12.9 9.2 21.1 20.5 21.1zm48.1-28.1c8.4 4.2 16.9 7.6 16.9 19.2 0 12.6-9.9 17.9-21.3 17.5-4.1-.1-8-1.2-12.3-2.6l1-9.1c3.6 1.5 8.4 3.1 12.3 3.1 5.2-.1 10.3-2.5 10.3-8.4 0-4.6-3.7-6.9-7.2-8.7-7.9-4-16.9-6.8-16.9-17.9 0-10.6 8.4-16.1 18.8-16.1 3.8 0 8.3.7 12.8 2.3l-1.4 8.9c-4.9-1.9-7.1-2.6-11.2-2.6-4.5 0-9.1 1.6-9.1 6.8 0 3.9 4.2 6 7.3 7.6zm42.1 13.3l-5.1 11.6 12.2-6.4 7 5.4-24 11.7H114l12.9-28.8 6.8 6.5zm-6.7-6.8l13.8-30.8 13.8 30.8H145l-4.2-10.2-4.2 10.2H127zm30.6 29.1l-9.6-22.3 6.9-6.4 12.9 28.8h-10.2zM193.4 7.3c1.2-.1 2-.9 2-2 0-.7-.5-1.3-1.1-1.6-.5-.2-.8-.2-1.9-.2H190v7h1.1v-3h.7c.9 0 1.2.3 2.1 1.9l.6 1.1h1.4l-.9-1.4c-.7-1.1-1.1-1.5-1.6-1.8zm-.9-.8h-1.4V4.4h1.3c1.3 0 1.8.3 1.8 1 0 .8-.6 1.1-1.7 1.1z"></path><path d="M192.8.3c-3.6 0-6.5 2.9-6.5 6.5s2.9 6.5 6.5 6.5 6.5-2.9 6.5-6.5c.1-3.5-2.9-6.5-6.5-6.5zm0 12c-3 0-5.5-2.4-5.5-5.5 0-3 2.5-5.4 5.5-5.4s5.4 2.4 5.4 5.4c.1 3.1-2.4 5.5-5.4 5.5z"></path></g><g id="Schedule"><path d="M216.1 148.7v-58h7.7v58h-7.7zM249.7 148.7V97.5h-19.1v-6.8h46v6.8h-19.2v51.2h-7.7zM298 130.1l7.2-.6c.3 2.9 1.1 5.3 2.4 7.1 1.3 1.9 3.2 3.4 5.8 4.5 2.6 1.1 5.6 1.7 8.9 1.7 2.9 0 5.5-.4 7.8-1.3 2.2-.9 3.9-2.1 5-3.6s1.6-3.2 1.6-5c0-1.8-.5-3.4-1.6-4.8s-2.8-2.5-5.2-3.4c-1.6-.6-5-1.5-10.3-2.8s-9.1-2.5-11.2-3.6c-2.8-1.5-4.8-3.3-6.2-5.4-1.4-2.2-2-4.6-2-7.2 0-2.9.8-5.7 2.5-8.2s4.1-4.5 7.3-5.8c3.2-1.3 6.7-2 10.6-2 4.3 0 8.1.7 11.4 2.1 3.3 1.4 5.8 3.4 7.6 6.1 1.8 2.7 2.7 5.7 2.9 9.1l-7.4.6c-.4-3.7-1.7-6.4-4-8.3-2.3-1.9-5.7-2.8-10.1-2.8-4.6 0-8 .9-10.2 2.6-2.1 1.7-3.2 3.8-3.2 6.2 0 2.1.8 3.8 2.3 5.1 1.5 1.3 5.3 2.7 11.6 4.1 6.2 1.4 10.5 2.6 12.8 3.7 3.4 1.6 5.9 3.5 7.5 5.9 1.6 2.4 2.4 5.1 2.4 8.3 0 3.1-.9 6-2.7 8.7-1.8 2.7-4.3 4.9-7.6 6.4s-7 2.3-11.2 2.3c-5.3 0-9.7-.8-13.2-2.3s-6.3-3.8-8.4-6.9c-1.9-3.2-3-6.6-3.1-10.5zM378.8 133.3l7 .9c-.8 4.8-2.7 8.6-5.9 11.3-3.2 2.7-7 4.1-11.6 4.1-5.8 0-10.4-1.9-13.9-5.6-3.5-3.8-5.2-9.2-5.2-16.2 0-4.5.8-8.5 2.3-11.9 1.5-3.4 3.8-6 6.9-7.7 3.1-1.7 6.4-2.6 10-2.6 4.6 0 8.3 1.2 11.2 3.5 2.9 2.3 4.8 5.6 5.6 9.8l-6.9 1.1c-.7-2.8-1.8-4.9-3.5-6.4-1.7-1.4-3.7-2.1-6.1-2.1-3.6 0-6.5 1.3-8.7 3.9s-3.4 6.6-3.4 12.2 1.1 9.8 3.2 12.3c2.2 2.6 5 3.8 8.5 3.8 2.8 0 5.1-.9 7-2.6s3-4.2 3.5-7.8zM389.5 148.7v-58h7.1v20.8c3.3-3.9 7.5-5.8 12.6-5.8 3.1 0 5.8.6 8.1 1.8 2.3 1.2 3.9 2.9 4.9 5.1 1 2.2 1.5 5.3 1.5 9.4v26.6h-7.1V122c0-3.6-.8-6.2-2.3-7.8s-3.7-2.4-6.6-2.4c-2.1 0-4.1.5-6 1.6-1.9 1.1-3.2 2.6-4 4.5-.8 1.9-1.2 4.5-1.2 7.8v23h-7zM460.9 135.2l7.4.9c-1.2 4.3-3.3 7.6-6.5 10s-7.2 3.6-12 3.6c-6.1 0-11-1.9-14.6-5.7-3.6-3.8-5.4-9.1-5.4-15.9 0-7.1 1.8-12.6 5.5-16.5s8.4-5.9 14.2-5.9c5.6 0 10.2 1.9 13.8 5.7 3.6 3.8 5.3 9.2 5.3 16.2v1.9h-31.4c.3 4.6 1.6 8.2 3.9 10.6 2.3 2.5 5.3 3.7 8.8 3.7 2.6 0 4.8-.7 6.7-2.1 1.7-1.3 3.2-3.5 4.3-6.5zm-23.4-11.5H461c-.3-3.5-1.2-6.2-2.7-8-2.3-2.7-5.2-4.1-8.8-4.1-3.3 0-6 1.1-8.3 3.3-2.2 2.2-3.5 5.1-3.7 8.8zM502 148.7v-5.3c-2.7 4.2-6.6 6.3-11.8 6.3-3.4 0-6.4-.9-9.2-2.8-2.8-1.8-5-4.4-6.5-7.7s-2.3-7.1-2.3-11.4c0-4.2.7-8 2.1-11.4 1.4-3.4 3.5-6 6.3-7.9 2.8-1.8 5.9-2.7 9.4-2.7 2.5 0 4.8.5 6.8 1.6s3.6 2.5 4.8 4.2V90.7h7.1v58H502zm-22.5-20.9c0 5.4 1.1 9.4 3.4 12.1 2.3 2.7 4.9 4 8 4 3.1 0 5.8-1.3 7.9-3.8 2.2-2.5 3.3-6.4 3.3-11.7 0-5.8-1.1-10-3.3-12.7-2.2-2.7-4.9-4-8.2-4-3.2 0-5.8 1.3-7.9 3.9-2.1 2.5-3.2 6.6-3.2 12.2zM545 148.7v-6.2c-3.3 4.8-7.7 7.1-13.3 7.1-2.5 0-4.8-.5-6.9-1.4-2.2-1-3.7-2.1-4.8-3.6-1-1.4-1.8-3.2-2.2-5.3-.3-1.4-.4-3.6-.4-6.7v-26h7.1V130c0 3.7.1 6.2.4 7.5.4 1.9 1.4 3.3 2.9 4.4 1.5 1.1 3.2 1.6 5.4 1.6s4.1-.5 6-1.6 3.2-2.6 4-4.5c.8-1.9 1.2-4.6 1.2-8.2v-22.5h7.1v42H545zM559.9 148.7v-58h7.1v58h-7.1zM604.4 135.2l7.4.9c-1.2 4.3-3.3 7.6-6.5 10s-7.2 3.6-12 3.6c-6.1 0-11-1.9-14.6-5.7-3.6-3.8-5.4-9.1-5.4-15.9 0-7.1 1.8-12.6 5.5-16.5s8.4-5.9 14.2-5.9c5.6 0 10.2 1.9 13.8 5.7 3.6 3.8 5.3 9.2 5.3 16.2v1.9h-31.4c.3 4.6 1.6 8.2 3.9 10.6 2.3 2.5 5.3 3.7 8.8 3.7 2.6 0 4.8-.7 6.7-2.1 1.8-1.3 3.3-3.5 4.3-6.5zM581 123.7h23.5c-.3-3.5-1.2-6.2-2.7-8-2.3-2.7-5.2-4.1-8.8-4.1-3.3 0-6 1.1-8.3 3.3-2.2 2.2-3.4 5.1-3.7 8.8zM636.9 98.3v-6.8h37.6V97c-3.7 3.9-7.4 9.2-11 15.7-3.6 6.5-6.4 13.2-8.4 20.1-1.4 4.9-2.3 10.2-2.7 16H645c.1-4.6 1-10.1 2.7-16.5 1.7-6.5 4.2-12.7 7.4-18.7s6.6-11.1 10.2-15.2h-28.4zM679.1 120.1c0-6.9.7-12.4 2.1-16.6 1.4-4.2 3.5-7.4 6.3-9.7s6.3-3.4 10.5-3.4c3.1 0 5.8.6 8.2 1.9 2.3 1.3 4.3 3.1 5.8 5.4 1.5 2.4 2.7 5.2 3.6 8.6.9 3.4 1.3 8 1.3 13.7 0 6.8-.7 12.3-2.1 16.5-1.4 4.2-3.5 7.4-6.3 9.7-2.8 2.3-6.3 3.4-10.5 3.4-5.6 0-10-2-13.2-6-3.8-4.7-5.7-12.6-5.7-23.5zm7.3 0c0 9.5 1.1 15.9 3.3 19 2.2 3.2 5 4.7 8.3 4.7 3.3 0 6-1.6 8.3-4.8 2.2-3.2 3.3-9.5 3.3-19 0-9.6-1.1-15.9-3.3-19-2.2-3.1-5-4.7-8.3-4.7-3.3 0-5.9 1.4-7.8 4.2-2.6 3.6-3.8 10.1-3.8 19.6z"></path></g></svg> 