<?xml version="1.0" encoding="utf-8"?>
<!-- Generator: Adobe Illustrator 22.0.0, SVG Export Plug-In . SVG Version: 6.00 Build 0)  -->
<svg version="1.1" id="Layer_1" xmlns="http://www.w3.org/2000/svg" xmlns:xlink="http://www.w3.org/1999/xlink" x="0px" y="0px"
	 viewBox="0 0 143.4 74.9" style="enable-background:new 0 0 143.4 74.9;" xml:space="preserve">
<style type="text/css">
	.st0{fill:url(#SVGID_1_);}
	.st1{fill:url(#SVGID_2_);}
	.st2{fill:url(#SVGID_3_);}
	.st3{fill:url(#SVGID_4_);}
	.st4{fill:url(#SVGID_5_);}
	.st5{fill:url(#SVGID_6_);}
</style>
<g>
	<g>
		<g>
			<path d="M70.8,49.2c0,0.1,0,0.1,0,0.2c0,0.5,0.6,1,1.3,1c0.6,0,1.1-0.4,1.1-0.8c0-0.5-0.3-0.7-1.5-1.2c-2.3-0.8-3.2-1.8-3.2-3.4
				c0-2,1.5-3.3,3.7-3.3c1.4,0,2.6,0.6,3.2,1.6c0.3,0.5,0.4,1,0.6,1.7h-2.6c-0.1-0.7-0.4-1.1-1.2-1.1c-0.6,0-1,0.3-1,0.8
				c0,0.3,0.2,0.6,0.5,0.8c0.2,0.1,0.4,0.2,1.2,0.5c1.2,0.5,1.8,0.8,2.3,1.2c0.6,0.5,0.9,1.3,0.9,2.1c0,2-1.5,3.3-3.8,3.3
				c-2.3,0-3.8-1.3-3.8-3.4H70.8z"/>
			<path d="M80.7,52.4h-2.6V41.8h2.6v4.5l2.5-4.5h3l-3,5l3,5.6h-3l-2.5-4.6V52.4z"/>
			<path d="M93.5,52.4h-2.6v-4.7l-3.5-5.9h3.1l1.7,3.3l1.7-3.3h3l-3.4,5.9V52.4z"/>
			<path d="M109,41.8h2.7l-2.8,10.6h-2.7l-1.4-6.3l-1.3,6.3h-2.7l-2.7-10.6h2.7l1.4,6l1.4-6h2.6l1.4,6.2L109,41.8z"/>
			<path d="M115.4,50.9l-0.5,1.5h-2.7l3.5-10.6h3.3l3.5,10.6h-2.8l-0.5-1.5H115.4z M117.3,44.9l-1.2,4h2.5L117.3,44.9z"/>
			<path d="M126.8,52.4h-2.6V41.8h3.4c1.4,0,2.4,0.3,3.1,0.8c0.7,0.6,1.1,1.5,1.1,2.7c0,1.6-0.7,2.7-2,3.2l2.3,3.9h-3.1l-2.3-4.1
				V52.4z M127.6,46.9c1.1,0,1.7-0.5,1.7-1.5c0-0.9-0.6-1.5-1.5-1.5h-1v2.9H127.6z"/>
			<path d="M134.6,41.8h3.1c1.8,0,3,0.3,3.9,1.2c1.1,1,1.7,2.4,1.7,4c0,1.7-0.6,3.2-1.7,4.2c-0.9,0.8-2.2,1.2-3.7,1.2h-3.4V41.8z
				 M137.2,50.3h0.4c1.9,0,3.2-1.3,3.2-3.2c0-0.9-0.4-1.9-1-2.4c-0.5-0.5-1.3-0.8-2.1-0.8h-0.5V50.3z"/>
		</g>
		<g>
			<path d="M82.3,63.4h-0.5v-3.8h0.5V63.4z"/>
			<path d="M85.6,63.4h-0.5V60h-1.2v-0.5h2.9V60h-1.2V63.4z"/>
			<path d="M93.4,60.8c-0.1-0.5-0.4-0.8-1-0.8c-0.5,0-0.8,0.2-0.8,0.6c0,0.3,0.2,0.4,0.7,0.6l0.6,0.1c0.5,0.1,0.7,0.2,0.9,0.4
				c0.2,0.2,0.3,0.4,0.3,0.7c0,0.7-0.6,1.2-1.5,1.2c-1,0-1.6-0.5-1.7-1.4h0.6c0.1,0.6,0.5,1,1.1,1c0.6,0,0.9-0.3,0.9-0.7
				c0-0.3-0.2-0.5-0.6-0.6L92,61.6c-0.7-0.2-1-0.5-1-1c0-0.7,0.6-1.1,1.4-1.1s1.4,0.4,1.5,1.3H93.4z"/>
			<path d="M99.3,61.5c0,1.1-0.8,2-1.9,2c-1.1,0-1.9-0.8-1.9-2c0-1.2,0.8-2,1.9-2C98.6,59.5,99.3,60.3,99.3,61.5z M96.2,61.5
				c0,0.9,0.5,1.5,1.3,1.5c0.8,0,1.3-0.6,1.3-1.5c0-0.9-0.5-1.6-1.3-1.6C96.7,60,96.2,60.6,96.2,61.5z"/>
			<path d="M101.7,62.9h2v0.5h-2.5v-3.8h0.5V62.9z"/>
			<path d="M108.2,59.6v2.5c0,0.5-0.1,0.8-0.3,1c-0.3,0.3-0.7,0.4-1.2,0.4c-0.5,0-0.9-0.1-1.2-0.4c-0.2-0.2-0.3-0.5-0.3-1v-2.5h0.5
				v2.6c0,0.5,0.4,0.9,1,0.9c0.6,0,1-0.3,1-0.9v-2.6H108.2z"/>
			<path d="M111.5,63.4h-0.5V60h-1.2v-0.5h2.9V60h-1.2V63.4z"/>
			<path d="M114.8,63.4h-0.5v-3.8h0.5V63.4z"/>
			<path d="M120.2,61.5c0,1.1-0.8,2-1.9,2c-1.1,0-1.9-0.8-1.9-2c0-1.2,0.8-2,1.9-2C119.5,59.5,120.2,60.3,120.2,61.5z M117.1,61.5
				c0,0.9,0.5,1.5,1.3,1.5c0.8,0,1.3-0.6,1.3-1.5c0-0.9-0.5-1.6-1.3-1.6C117.6,60,117.1,60.6,117.1,61.5z"/>
			<path d="M124.5,63.4l-1.6-2.4c-0.2-0.3-0.3-0.5-0.4-0.7c0,0.2,0,0.5,0,0.7v2.4H122v-3.8h0.6l1.5,2.3c0.1,0.2,0.3,0.6,0.5,0.8
				c0-0.2,0-0.4,0-0.7v-2.4h0.5v3.8H124.5z"/>
			<path d="M129.3,60.8c-0.1-0.5-0.4-0.8-1-0.8c-0.5,0-0.8,0.2-0.8,0.6c0,0.3,0.2,0.4,0.7,0.6l0.6,0.1c0.5,0.1,0.7,0.2,0.9,0.4
				c0.2,0.2,0.3,0.4,0.3,0.7c0,0.7-0.6,1.2-1.5,1.2c-1,0-1.6-0.5-1.7-1.4h0.6c0.1,0.6,0.5,1,1.1,1c0.6,0,0.9-0.3,0.9-0.7
				c0-0.3-0.2-0.5-0.6-0.6l-0.9-0.2c-0.7-0.2-1-0.5-1-1c0-0.7,0.6-1.1,1.4-1.1s1.4,0.4,1.5,1.3H129.3z"/>
		</g>
	</g>
	<g>
		
			<linearGradient id="SVGID_1_" gradientUnits="userSpaceOnUse" x1="-58.6655" y1="-44.1588" x2="-57.4371" y2="-44.1588" gradientTransform="matrix(1.9875 -13.5815 -13.5815 -1.9875 -448.9631 -834.0651)">
			<stop  offset="0" style="stop-color:#F8E131"/>
			<stop  offset="1" style="stop-color:#A38F3A"/>
		</linearGradient>
		<polygon class="st0" points="34,74.7 39.9,40.6 32.1,35.8 26.9,74.7 		"/>
		<linearGradient id="SVGID_2_" gradientUnits="userSpaceOnUse" x1="36.3194" y1="43.836" x2="45.3378" y2="61.2715">
			<stop  offset="0" style="stop-color:#DFDFDE"/>
			<stop  offset="1" style="stop-color:#919090"/>
		</linearGradient>
		<path class="st1" d="M32,35.7c0,0,8.8,38.9,14.3,38.9c0.2,0,6.4,0,6.2,0c-4.7,0-9.9-33-9.9-33L32,35.7L32,35.7z"/>
		
			<linearGradient id="SVGID_3_" gradientUnits="userSpaceOnUse" x1="-43.6464" y1="-51.5952" x2="-42.4181" y2="-51.5952" gradientTransform="matrix(7.560000e-13 7.3522 7.3522 -7.560000e-13 428.5292 387.7507)">
			<stop  offset="0" style="stop-color:#F8E131"/>
			<stop  offset="1" style="stop-color:#A38F3A"/>
		</linearGradient>
		<path class="st2" d="M46.2,74.2c15.3,0,5.4-30.1,2.9-37.4C45.8,27.9,40.9,9.4,39.5,0c0.2,1.1,9.6,3.7,10.8,7.9
			c2,7,6.7,28.7,7.5,35.9c1,9.5,3.6,30.9-5,30.9l-6.6-0.1L46.2,74.2z"/>
		<linearGradient id="SVGID_4_" gradientUnits="userSpaceOnUse" x1="7.3947" y1="66.9167" x2="8.624" y2="70.3997">
			<stop  offset="0" style="stop-color:#DFDFDE"/>
			<stop  offset="1" style="stop-color:#919090"/>
		</linearGradient>
		<path class="st3" d="M6.5,74.2c-1.7-0.5-6.2-2.5-6.5-8c0,0.3,3.1,2.2,5.6,1.2c4.1,6.4,10.6,3.4,10.6,3.4S8.1,74.7,6.5,74.2z"/>
		
			<linearGradient id="SVGID_5_" gradientUnits="userSpaceOnUse" x1="-62.6128" y1="-40.3229" x2="-61.3845" y2="-40.3229" gradientTransform="matrix(7.560000e-13 -7.3498 -7.3498 -7.560000e-13 -281.7217 -408.806)">
			<stop  offset="0" style="stop-color:#F8E131"/>
			<stop  offset="1" style="stop-color:#A38F3A"/>
		</linearGradient>
		<path class="st4" d="M10.1,48.2c0.1-0.3,0.2-0.7,0.3-1c1.9-4.7,9.7-5,13.3-2.7c-2.8-2-6.5-2.1-9.8-1.3c-3.6,0.9-7.2,3.1-8,6.7
			c-0.5,2.3,0.3,4.8,1.4,6.9c2.3,4.1,7.6,9.8,4.1,14.8c-1,1.4-3.2,3-5.2,2.6c2.6,0.8,6.5,1.3,9.6-0.3c3.2-1.7,4.4-5.8,3.6-9.2
			c-0.5-2.1-1.9-4.7-3.3-6.4C13.9,55.5,9.4,52.1,10.1,48.2z"/>
		<linearGradient id="SVGID_6_" gradientUnits="userSpaceOnUse" x1="22.113" y1="52.1073" x2="27.5484" y2="65.6959">
			<stop  offset="0" style="stop-color:#DFDFDE"/>
			<stop  offset="1" style="stop-color:#919090"/>
		</linearGradient>
		<path class="st5" d="M25,45.5c0.7,1,1.2,2.2,1.6,3.7c0.7,3.1,2.7,17.5,4.2,21.6c0.5,1.4,1.3,3.9,3.1,3.9c0.2,0-5.6,0-6.9,0
			c-1.3,0-2.1-1.5-2.6-2.5c-0.9-2-1.6-4.2-2-6.4c-1.1-6.2-1.1-7.2-2.1-12.9c-0.6-3-2-10.4-6.4-9.7c2-0.4,3.8-0.6,5.9-0.3
			C22.2,43.1,23.9,44,25,45.5z"/>
	</g>
</g>
</svg>
