<?xml version="1.0" encoding="UTF-8"?> <svg xmlns="http://www.w3.org/2000/svg" version="1.1" id="Layer_1" x="0" y="0" viewBox="0 0 360 172.3" xml:space="preserve"><style>.st0{fill:#afafaf}</style><path d="M.1 85.8h2.7l6.2 9 6-9h2.6v19.3h-3V91.8l-5.3 7.7h-.7l-5.4-7.7v13.4h-3L.1 85.8zM28.7 85.8H31l7.6 19.3h-3.1l-1.7-4.3h-7.9l-1.7 4.3h-3.1l7.6-19.3zM27 97.9h5.7l-2.9-7.3-2.8 7.3zM42.1 105.1V85.8H49c1.1 0 2.3.1 3.4.5.8.3 1.6.7 2.1 1.4.5.6.8 1.2 1.1 1.9.2.7.3 1.5.3 2.3 0 1.2-.3 2.5-1 3.5s-1.7 1.7-2.9 2.1l5.2 7.7h-3.7L48.8 98h-3.7v7.1h-3zm3-16.1v6H49c1 .1 1.9-.2 2.7-.8.7-.6 1-1.4 1-2.3 0-.8-.3-1.6-.9-2.1-.9-.6-1.9-.9-3-.8h-3.7zM68 96.8v8.4h-3v-8.4l-7-11h3.7l4.8 7.7 4.9-7.7H75l-7 11zM78.4 85.8h3v16.1h9.9v3.2H78.4V85.8zM101.6 85.8h2.3l7.6 19.3h-3.2l-1.7-4.3h-7.9l-1.7 4.3h-3l7.6-19.3zm-1.7 12.1h5.7l-2.9-7.3-2.8 7.3zM127.5 105.1l-9.6-13.2v13.2H115V85.8h2.3l9.6 13.2V85.8h2.9v19.3h-2.3zM135.3 85.8h5.4c1.6 0 3.1.2 4.6.8 1.2.4 2.2 1.1 3.1 2.1.7.9 1.3 1.9 1.6 3 .4 1.2.5 2.4.5 3.6.1 2.6-.8 5.2-2.5 7.2-1.7 1.8-4.2 2.7-7.6 2.8h-5.1V85.8zm3 3.2v13h2.3c2.3 0 4-.6 5.1-1.8 1.2-1.4 1.8-3.2 1.6-5 0-4.2-2.2-6.3-6.7-6.3l-2.3.1zM162.6 85.8h5.4c1.6 0 3.1.2 4.6.8 1.2.4 2.2 1.1 3.1 2.1.7.9 1.3 1.9 1.6 3 .4 1.2.5 2.4.5 3.6.1 2.6-.8 5.2-2.5 7.2-1.7 1.8-4.2 2.7-7.6 2.8h-5.1V85.8zm3 3.2v13h2.4c2.3 0 4-.6 5.1-1.8 1.2-1.4 1.8-3.2 1.6-5 0-4.2-2.2-6.3-6.7-6.3l-2.4.1zM182.3 85.8h12.9v3.1h-9.9v4.9h9.3v3h-9.3v5.1h10.2v3.2h-13.2V85.8zM200.1 105.1V85.8h7c1.2 0 2.4.2 3.6.5.9.3 1.6.8 2.2 1.5.5.6.8 1.3 1.1 2 .2.7.3 1.5.3 2.3 0 .8-.1 1.6-.4 2.3-.3.7-.7 1.4-1.2 2-.6.7-1.4 1.2-2.3 1.5-1.1.4-2.3.6-3.4.5h-4v6.6l-2.9.1zm3-16.2v6.5h4c2.8 0 4.2-1.1 4.2-3.3 0-2.2-1.3-3.2-4-3.2h-4.2zM223 85.8h2.3l7.6 19.3h-3.2l-1.8-4.3H220l-1.7 4.3h-3.1l7.8-19.3zm-1.8 12.1h5.7l-2.9-7.3-2.8 7.3zM236.3 105.1V85.8h6.8c1.1 0 2.3.1 3.4.5.8.3 1.6.7 2.1 1.4.5.6.8 1.2 1.1 1.9.2.7.3 1.5.3 2.3 0 1.2-.3 2.5-1 3.5s-1.6 1.7-2.8 2.1l5.2 7.7h-3.6l-4.8-7.1h-3.7v7.1l-3-.1zm3-16.1v6h3.9c1 .1 1.9-.2 2.7-.8.7-.6 1-1.4 1-2.3 0-.8-.3-1.6-.9-2.1-.9-.6-1.9-.8-3-.8h-3.7zM253.2 85.8h14.7v3.1H262v16.2h-3V88.9h-5.8v-3.1zM271.4 85.8h2.6l6.2 9 6-9h2.6v19.3h-3V91.8l-5.3 7.7h-.8l-5.4-7.7v13.4h-3l.1-19.4zM294.3 85.8h12.9v3.1h-9.9v4.9h9.3v3h-9.3v5.1h10.2v3.2h-13.2V85.8zM324.6 105.1L315 91.9v13.2h-2.9V85.8h2.3L324 99V85.8h3v19.3h-2.4zM330.4 85.8h14.7v3.1h-5.8v16.2h-3V88.9h-5.8l-.1-3.1zM28.4 116.1c3.1-3.5 8.4-3.8 12-.7l.7.7c3.4 4.1 3.4 10 0 14.1-3.1 3.5-8.5 3.8-12 .7-.2-.2-.5-.4-.7-.7-3.4-4.1-3.4-10 0-14.1zm2.3 11.8c2 2.3 5.4 2.5 7.6.5.2-.2.4-.3.5-.5 1.1-1.3 1.7-3.1 1.7-4.8.1-1.8-.5-3.5-1.7-4.8-1.9-2.2-5.3-2.5-7.6-.6l-.6.6c-2.2 2.8-2.2 6.8.1 9.6zM48.1 113.4h12.8v3.1h-9.8v5.5h9.2v3.1h-9.1v7.6h-3l-.1-19.3zM71.3 113.4H86v3.1h-5.8v16.2h-3v-16.2h-5.8v-3.1zM89.4 132.8v-19.3h6.8c1.1 0 2.3.1 3.4.5.8.3 1.6.7 2.1 1.4.5.6.8 1.2 1.1 1.9.2.7.3 1.5.3 2.3 0 1.2-.3 2.5-1 3.5s-1.6 1.7-2.8 2.1l5.2 7.7h-3.7l-4.8-7.1h-3.7v7.1l-2.9-.1zm3-16.2v5.9h3.9c1 .1 1.9-.2 2.7-.8.7-.6 1-1.4 1-2.3 0-.8-.3-1.6-.9-2.1-.9-.6-1.9-.9-3-.8h-3.7zM114.8 113.4h2.3l7.6 19.3h-3.2l-1.7-4.3H112l-1.7 4.3h-3.1l7.6-19.3zm-1.7 12.2h5.7l-2.9-7.4-2.8 7.4zM140.7 132.8l-9.6-13.2v13.2h-2.9v-19.3h2.3l9.6 13.2v-13.2h2.9v19.3h-2.3zM157.9 126c-.4-.4-1-.8-1.5-1-.7-.3-1.4-.5-2.1-.6s-1.5-.4-2.3-.7c-.7-.3-1.4-.6-2.1-1-.6-.4-1.2-1-1.5-1.6-1.2-2.2-.6-4.8 1.3-6.4 1.4-1.1 3.1-1.7 4.9-1.6 2.5-.1 5 .9 6.7 2.8l-1.6 2.4c-1.4-1.3-3.3-2-5.2-2-.9 0-1.8.2-2.6.6-.9.5-1.3 1.6-.8 2.5.1.3.3.5.6.7.6.4 1.3.7 2 .9.8.2 1.7.4 2.6.8.9.3 1.7.6 2.6 1 .8.4 1.5 1 2 1.7.6.8.8 1.8.8 2.8 0 1.6-.7 3.1-1.9 4.1-1.3 1.1-3 1.6-4.8 1.6-1.5 0-3-.3-4.4-1-1.3-.6-2.4-1.4-3.3-2.5l1.8-2.4c1.5 1.8 3.8 2.8 6.1 2.8.9 0 1.7-.2 2.4-.6.6-.4.9-1 .9-1.7s-.3-1.2-.6-1.6zM165.9 132.8v-19.3h7c1.2 0 2.4.2 3.6.5.9.3 1.6.8 2.2 1.5.5.6.8 1.3 1.1 2 .2.7.3 1.5.3 2.3 0 .8-.1 1.6-.4 2.3-.3.7-.7 1.4-1.2 2-.6.7-1.4 1.2-2.3 1.5-1.1.4-2.3.6-3.4.5h-4v6.6l-2.9.1zm3-16.2v6.5h4c2.8 0 4.2-1.1 4.2-3.3s-1.3-3.2-4-3.2h-4.2zM186.1 116.1c3.1-3.5 8.4-3.8 12-.7l.7.7c3.4 4.1 3.4 10 0 14.1-3.1 3.5-8.5 3.8-12 .7-.2-.2-.5-.4-.7-.7-3.4-4.1-3.4-10 0-14.1zm2.3 11.8c2 2.3 5.4 2.5 7.6.5.2-.2.4-.3.5-.5 1.1-1.3 1.7-3.1 1.6-4.8.1-1.8-.5-3.5-1.7-4.8-1.9-2.2-5.3-2.5-7.6-.6l-.6.6c-2.1 2.8-2.1 6.8.2 9.6zM205.8 132.8v-19.3h6.8c1.1 0 2.3.1 3.4.5.8.3 1.6.7 2.1 1.4.5.6.8 1.2 1.1 1.9.2.7.3 1.5.3 2.3 0 1.2-.3 2.5-1 3.5s-1.6 1.7-2.8 2.1l5.2 7.7h-3.6l-4.8-7.1h-3.7v7.1l-3-.1zm3-16.2v5.9h3.9c1 .1 1.9-.2 2.7-.8.7-.6 1-1.4 1-2.3 0-.8-.3-1.6-.9-2.1-.9-.6-1.9-.8-2.9-.8h-3.8zM222.6 113.4h14.7v3.1h-5.8v16.2h-3v-16.2h-5.8l-.1-3.1zM244.6 113.4h2.3l7.6 19.3h-3.2l-1.7-4.3h-7.9l-1.7 4.3h-3l7.6-19.3zm-1.8 12.2h5.7l-2.9-7.4-2.8 7.4zM254.1 113.4h14.7v3.1H263v16.2h-3v-16.2h-5.8l-.1-3.1zM272.3 113.4h3v19.3h-3v-19.3zM282.3 116.1c3.1-3.5 8.4-3.8 12-.7l.7.7c3.4 4.1 3.4 10 0 14.1-3.1 3.5-8.5 3.8-12 .7-.2-.2-.5-.4-.7-.7-3.5-4.1-3.5-10 0-14.1zm2.2 11.8c2 2.3 5.4 2.5 7.6.5.2-.2.4-.3.5-.5 1.1-1.3 1.7-3.1 1.6-4.8.1-1.8-.5-3.5-1.7-4.8-1.9-2.2-5.3-2.5-7.6-.6l-.6.6c-2 2.8-2 6.8.2 9.6zM314.4 132.8l-9.6-13.2v13.2h-2.9v-19.3h2.3l9.6 13.2v-13.2h2.9v19.3h-2.3zM326.3 72.2h3.9v.8h-1.5v3.2h-.8V73h-1.6v-.8zm4.5 0h.7l1.7 1.9 1.6-1.9h.7v3.9h-.8v-2.8l-1.5 1.8-1.5-1.8v2.8h-.8l-.1-3.9zM206.8 29.5v-.8c0-.4.1-.8.2-1.2-.6-4.4-3.4-8.1-7.3-10.1-1.7-.9-3.5-1.4-5.4-1.5l-.1.2c-.8 1.5-1.4 3.1-1.9 4.7-.2.5-.3 1.1-.5 1.7-.6 2.3-.8 4.6-.8 7v8.3h15.8v-8.3zM269.5.5h-49.4c-4.6 0-9.2 1.1-13.3 3.2l-.3.1.1.1c5.3 2.7 9.7 7.1 12.4 12.4h50.2l.1-.2.2-15.6zM115.5 57.3l15.8-20.9V0h-19.2l-11.9 15.9-26.7 35.5V0H54.3L0 72.2h19.8l37.9-50.4v50.4h19.9l37.9-50.4z"></path><path class="st0" d="M207.1 68.9l-.1-.1c-5.3-2.7-9.7-7.1-12.4-12.4h-58.8L151 36.2h-19.7l-15.8 20.9v15.2h79.8c.6 0 1.1-.1 1.6-.1l.5-.1 1.1-.2.6-.1 1-.2.6-.2 1-.3.6-.2.9-.3.6-.2 1-.4.5-.2c.5-.2 1-.4 1.4-.7l.4-.2zM194.2 16.2c6.8.4 12.2 5.8 12.6 12.5V44c0 .4-.1.8-.1 1.2.9 6.3 6.2 11.2 12.6 11.6l.1-.2c1-2 1.8-4.1 2.4-6.3.1-.6.3-1.1.4-1.7.3-1.7.5-3.5.5-5.3V29.5c0-1.8-.2-3.5-.5-5.3-.1-.6-.2-1.1-.4-1.7-2-8.2-7.5-15.1-15-18.9A29.3 29.3 0 00193.5.4h-47.6L134 16.2h60.2z"></path><path d="M298.1 29.5v-2.2c0-.4 0-.8-.1-1.2v-.5c0-.4-.1-.8-.2-1.2l-.1-.4c-.1-.5-.2-.9-.3-1.3v-.2c-.1-.6-.3-1.2-.5-1.8-.3-1-.7-2-1.1-3-.2-.5-.5-1-.7-1.5l-.1-.3h-25.5l-.1.2h.9c1.5.1 3 .5 4.4 1.2.4.2.7.4 1.1.6.3.2.7.4 1 .6l.1.1c.3.2.6.5.9.7l.1.1c.3.2.5.5.8.7l.1.1.1.1.5.6.1.1.2.3c.2.2.4.5.5.7l.2.4.1.1c.1.2.2.4.4.6s.1.3.2.5.2.4.3.7c.1.1.1.3.1.4l.1.2c.1.2.2.4.2.6l.2.7c.1.2.1.4.1.6s.1.6.1.8 0 .3.1.5c0 .4.1.9.1 1.3v13.8c0 .4 0 .9-.1 1.3 0 .2 0 .3-.1.5-.1.3-.1.6-.1.8-.1.3-.1.4-.1.6s-.1.5-.2.7-.1.4-.2.6l-.1.2c0 .1-.1.3-.1.4 0 .1-.2.4-.3.7s-.1.3-.2.5-.2.4-.4.6l-.1.1-.2.4c-.2.3-.3.5-.5.7l-.2.3-.1.1c-.2.2-.4.4-.5.6l-.1.1-.1.1c-.2.3-.5.5-.8.7l-.1.1c-.3.2-.6.5-.9.7l-.1.1c-.3.2-.7.4-1 .6-.3.2-.7.4-1.1.6-1.4.6-2.9 1-4.4 1.2h-50.8c-6.8-.4-12.2-5.7-12.6-12.5v-7.2H191v6.5c0 4.6 1.1 9.2 3.2 13.3 5 9.7 15 15.8 25.9 15.8H269c10.9 0 20.9-6.1 25.9-15.8.3-.5.5-1 .7-1.5.4-1 .8-2 1.1-3 .2-.6.4-1.2.5-1.8V50c.1-.4.2-.9.3-1.3l.1-.4c.1-.4.1-.8.2-1.2v-.5c0-.4.1-.8.1-1.2V45 29.5h.2z"></path><path fill="#5b5b5b" d="M269.2.4v15.8h37.5v56h15.7v-56h21.9L360 .5V.4z"></path><g><path d="M55.4 157v15h-3.2l.2-10.8-2.6 8.6H47l-2.6-8.7.2 10.9h-3.1v-15h4.1l2.8 9 2.8-9h4.2zM59 157h5c1.7 0 2.9.1 3.5.2 2 .5 3 1.6 3 3.4 0 1.5-.9 2.6-2.6 3.2.7.2 1.3.5 1.7.8.8.7 1.2 1.6 1.2 2.8 0 1.3-.4 2.3-1.3 3.1-.7.7-1.7 1.1-2.9 1.3-.5.1-1.3.1-2.3.1H59V157zm3.5 5.8h1.7c1 0 1.7-.1 2.1-.4.4-.3.6-.7.6-1.2 0-.6-.2-1-.6-1.2-.4-.3-1.1-.4-2.1-.4h-1.7v3.2zm0 2.6v4h1.7c1.1 0 1.8-.2 2.2-.5.5-.3.7-.8.7-1.5 0-1.3-.9-2-2.6-2h-2zM84.5 157v2.9H78v3.1h6.5v2.7H78v3.5h6.5v2.9h-10V157h10zM88.3 169.2h3.4l-1.9 5.1H87l1.3-5.1zM101.9 157h4.8c1.7 0 2.9.1 3.6.4 1.3.5 2.3 1.5 2.9 2.9.5 1.1.7 2.4.7 3.9 0 2.6-.6 4.6-1.9 6.1-.7.8-1.5 1.3-2.4 1.5-.7.2-1.5.3-2.4.3h-5.3V157zm3.6 12.3h.5c1.1 0 2-.2 2.7-.7 1-.7 1.5-2.1 1.5-4.2 0-1.3-.2-2.3-.5-3.1-.5-1.2-1.6-1.8-3.2-1.8h-1v9.8zM117.3 157h4.9c1.7 0 2.9.1 3.5.2 2 .5 3 1.6 3 3.4 0 1.5-.9 2.6-2.6 3.2.7.2 1.3.5 1.7.8.8.7 1.2 1.6 1.2 2.8 0 1.3-.4 2.3-1.3 3.1-.7.7-1.7 1.1-2.9 1.3-.5.1-1.3.1-2.3.1h-5.4V157zm3.5 5.8h1.7c1 0 1.7-.1 2.1-.4.4-.3.6-.7.6-1.2 0-.6-.2-1-.6-1.2-.4-.3-1.1-.4-2.1-.4h-1.7v3.2zm0 2.6v4h1.7c1.1 0 1.8-.2 2.2-.5.5-.3.7-.8.7-1.5 0-1.3-.9-2-2.6-2h-2zM142.8 157v2.9h-6.5v3.1h6.5v2.7h-6.5v3.5h6.5v2.9h-10V157h10zM146.6 169.2h3.4l-1.9 5.1h-2.9l1.4-5.1zM159.8 168.7l3.4-1.2c0 .5.1.9.3 1.2.3.6.8.9 1.5.9.5 0 .9-.2 1.3-.5.3-.3.4-.6.4-1 0-.5-.3-.9-.8-1.3-.4-.3-1.4-.8-3-1.6-1.1-.6-1.9-1.1-2.3-1.7-.4-.6-.6-1.4-.6-2.4 0-1.4.5-2.5 1.5-3.3 1-.8 2.3-1.2 3.9-1.2 1.7 0 3 .4 3.8 1.3.4.4.7 1.1 1 2l-3.3 1.2c-.1-.4-.1-.6-.2-.8-.3-.6-.8-.9-1.5-.9-.5 0-.8.1-1.1.4-.2.2-.3.5-.3.9 0 .3.1.6.3.9.3.3.8.7 1.6 1 1.4.6 2.3 1.1 2.9 1.4 1.3.9 1.9 2 1.9 3.5 0 1.4-.6 2.6-1.7 3.5-.6.5-1.2.8-1.8 1-.6.2-1.4.3-2.2.3-1.8 0-3.1-.5-4-1.4-.5-.5-.9-1.2-1-2.2zM173.6 157h4.9c1.7 0 2.9.1 3.5.2 2 .5 3 1.6 3 3.4 0 1.5-.9 2.6-2.6 3.2.7.2 1.3.5 1.7.8.8.7 1.2 1.6 1.2 2.8 0 1.3-.4 2.3-1.3 3.1-.7.7-1.7 1.1-2.9 1.3-.5.1-1.3.1-2.3.1h-5.4V157zm3.5 5.8h1.7c1 0 1.7-.1 2.1-.4.4-.3.6-.7.6-1.2 0-.6-.2-1-.6-1.2-.4-.3-1.1-.4-2.1-.4h-1.7v3.2zm0 2.6v4h1.7c1.1 0 1.8-.2 2.2-.5.5-.3.7-.8.7-1.5 0-1.3-.9-2-2.6-2h-2zM199 157v2.9h-6.5v3.1h6.5v2.7h-6.5v3.5h6.5v2.9h-10V157h10zM216.9 166.4l3.4 1.1c-.2 1-.5 1.8-1 2.5-1 1.5-2.5 2.2-4.5 2.2-1.8 0-3.2-.6-4.1-1.9-.6-.9-1-1.8-1.2-2.9-.1-.9-.2-1.8-.2-2.8 0-1.8.2-3.3.6-4.5.9-2.4 2.6-3.6 5.2-3.6 2.1 0 3.6.8 4.5 2.3.4.7.6 1.5.8 2.4l-3.4.8c-.1-1-.3-1.6-.5-2-.3-.4-.7-.7-1.2-.7-.8 0-1.3.4-1.7 1.2-.3.8-.5 2.1-.5 3.9 0 1.7.2 2.9.5 3.7.4.8.9 1.1 1.6 1.1s1.2-.4 1.5-1.2c-.1-.2.1-.8.2-1.6zM233.2 157v2.9h-6.5v3.1h6.5v2.7h-6.5v3.5h6.5v2.9h-10V157h10zM236.6 157h6.2c1.3 0 2.3.1 2.9.4 1 .4 1.7 1 2.1 1.9.3.6.4 1.3.4 2.1 0 2.3-1.3 3.7-3.9 4.2l4.3 6.5h-4.4l-4.2-7v7h-3.6V157zm3.5 6.3h1.3c1 0 1.7-.1 2.2-.3.7-.3 1-.8 1-1.5 0-.8-.3-1.3-1-1.5-.4-.2-1.2-.3-2.2-.3h-1.3v3.6zM262.5 157v2.9h-3.9V172H255v-12.2h-3.9V157h11.4zM265.4 157h3.6v15h-3.6v-15zM282.5 157v2.9h-6.3v3.2h6.3v2.8h-6.3v6.3h-3.6V157h9.9zM285.8 157h3.6v15h-3.6v-15zM303.1 157v2.9h-6.5v3.1h6.5v2.7h-6.5v3.5h6.5v2.9h-10V157h10zM306.5 157h4.8c1.7 0 2.9.1 3.6.4 1.3.5 2.3 1.5 2.9 2.9.5 1.1.7 2.4.7 3.9 0 2.6-.6 4.6-1.9 6.1-.7.8-1.5 1.3-2.4 1.5-.7.2-1.5.3-2.4.3h-5.3V157zm3.6 12.3h.5c1.1 0 2-.2 2.7-.7 1-.7 1.5-2.1 1.5-4.2 0-1.3-.2-2.3-.5-3.1-.5-1.2-1.6-1.8-3.2-1.8h-1v9.8z"></path></g></svg> 